Coordinates
version=1
nRows=10
nColumns=63
inDegrees=yes

Units are S.I. units (second, meters, Newtons, ...)
If the header above contains a line with 'inDegrees', this indicates whether rotational values are in degrees (yes) or radians (no).

endheader
time	pelvis_tilt	pelvis_list	pelvis_rotation	pelvis_tx	pelvis_ty	pelvis_tz	hip_flexion_r	hip_adduction_r	hip_rotation_r	knee_angle_r	knee_angle_r_beta	ankle_angle_r	subtalar_angle_r	mtp_angle_r	hip_flexion_l	hip_adduction_l	hip_rotation_l	knee_angle_l	knee_angle_l_beta	ankle_angle_l	subtalar_angle_l	mtp_angle_l	L5_S1_Flex_Ext	L5_S1_Lat_Bending	L5_S1_axial_rotation	L4_L5_Flex_Ext	L4_L5_Lat_Bending	L4_L5_axial_rotation	L3_L4_Flex_Ext	L3_L4_Lat_Bending	L3_L4_axial_rotation	L2_L3_Flex_Ext	L2_L3_Lat_Bending	L2_L3_axial_rotation	L1_L2_Flex_Ext	L1_L2_Lat_Bending	L1_L2_axial_rotation	L1_T12_Flex_Ext	L1_T12_Lat_Bending	L1_T12_axial_rotation	Abs_r3	Abs_r2	Abs_r1	Abs_t1	Abs_t2	neck_flexion	neck_bending	neck_rotation	arm_flex_r	arm_add_r	arm_rot_r	elbow_flex_r	pro_sup_r	wrist_flex_r	wrist_dev_r	arm_flex_l	arm_add_l	arm_rot_l	elbow_flex_l	pro_sup_l	wrist_flex_l	wrist_dev_l
      8.33333333	     14.97345976	     -0.93997229	    147.75193477	     -0.47377709	      0.85866487	      0.06458911	     42.86896597	    -35.81509223	    -69.55279052	     94.69923638	      1.65281347	     53.46457563	    -19.07224856	      0.00000000	     -5.15174113	      1.89831662	     38.91451015	      5.93321216	      0.10355409	     59.76117940	     18.43452720	      0.00000000	      0.14567303	      0.34041300	      1.50738858	      0.27052939	      0.45274929	      1.60160037	      0.23932623	      0.82768016	      1.60160037	      0.16648971	      0.82768016	      1.31896501	      0.13527198	      0.69417018	      1.22475322	      0.08323757	      0.52729973	      1.13054143	      1.04052792	      3.85081991	      8.38364306	      0.00000000	      0.00000000	     27.44497869	    -35.55843947	    -43.65335616	      4.79259233	    -16.36642233	    -75.52062127	      3.00425416	    -54.97354126	     20.00395680	      5.00000014	     18.38706690	    -19.64376856	   -216.13600228	     44.00074813	     29.78539047	     20.00395680	      5.00000014
      8.36666667	     14.41731487	     -2.17670718	    146.01098263	     -0.47199082	      0.85867519	      0.06517613	     44.53667239	    -37.66232428	    -69.63973822	     97.01439299	      1.69322058	     52.08015446	    -18.86127437	      0.00000000	     -4.67586009	      3.68635643	     38.69389470	      6.22688484	      0.10867964	     59.74413581	     18.03755016	      0.00000000	      0.13662654	      0.10933537	      1.78013855	      0.25372914	      0.14541604	      1.89139721	      0.22446374	      0.26583801	      1.89139721	      0.15615047	      0.26583801	      1.55762123	      0.12687140	      0.22295668	      1.44636257	      0.07806840	      0.16936048	      1.33510391	      0.97590970	      1.23682355	      9.90059657	      0.00000000	      0.00000000	     27.44751398	    -35.69230997	    -43.65828324	      6.31360242	    -14.89325409	    -76.08098270	      3.66435107	    -54.82871117	     20.00395670	      5.00000014	     19.37485087	    -21.63244359	   -216.12526687	     46.21399314	     30.11029729	     20.00395670	      5.00000014
      8.40000000	     13.74591759	     -3.34655105	    144.19420096	     -0.47056991	      0.85933749	      0.06548977	     46.04074993	    -39.28391031	    -69.70193632	     99.27754463	      1.73272003	     50.57773955	    -18.45628274	      0.00000000	     -4.26940211	      5.42757998	     38.43160528	      6.48979111	      0.11326822	     59.71652591	     17.64619178	      0.00000000	      0.12099101	     -0.12072670	      2.07009131	      0.22469240	     -0.16056651	      2.19947201	      0.19877612	     -0.29353490	      2.19947201	      0.13828062	     -0.29353490	      1.81132989	      0.11235225	     -0.24618589	      1.68194919	      0.06913426	     -0.18700566	      1.55256848	      0.86422666	     -1.36568460	     11.51322681	      0.00000000	      0.00000000	     27.44372055	    -35.64455957	    -43.65766407	      7.71058521	    -13.59254880	    -76.69430227	      4.30661842	    -54.65603801	     20.00395662	      5.00000014	     20.37184754	    -23.67114447	   -216.11406271	     48.49211876	     30.36002573	     20.00395662	      5.00000014
      8.43333333	     13.00215297	     -4.39849712	    141.83879819	     -0.46947674	      0.86045830	      0.06526906	     47.21533182	    -40.45759804	    -69.74649885	    101.48610792	      1.77126673	     49.09205821	    -17.44929865	      0.00000000	     -4.04612923	      7.02494155	     38.04005574	      6.49665458	      0.11338801	     59.67184570	     17.28164439	      0.00000000	      0.10628023	     -0.32977228	      2.47910927	      0.19737302	     -0.43859714	      2.63405360	      0.17460779	     -0.80180833	      2.63405360	      0.12146768	     -0.80180833	      2.16922062	      0.09869182	     -0.67247164	      2.01427629	      0.06072852	     -0.51081727	      1.85933196	      0.75914906	     -3.73045002	     13.78806205	      0.00000000	      0.00000000	     27.43542369	    -35.55262187	    -43.65199933	      8.83627888	    -12.70443862	    -76.98913201	      4.65732280	    -54.55728513	     20.00395658	      5.00000014	     20.99113690	    -25.29167066	   -216.04414480	     49.53777757	     30.47919715	     20.00395658	      5.00000014
      8.46666667	     15.18535812	     -1.74096014	    141.83293354	     -0.46616569	      0.85456611	      0.06845836	     49.97419390	    -38.15735707	    -69.82325672	    104.02243223	      1.81553394	     47.76377520	    -16.98201790	      0.00000000	     -6.20873391	      4.45973221	     27.35750279	      4.80190912	      0.08380912	     59.74266241	     14.42673618	      0.00000000	      0.12357193	      0.01089170	      2.49667423	      0.22948543	      0.01448597	      2.65271637	      0.20301633	      0.02648209	      2.65271637	      0.14123036	      0.02648209	      2.18458995	      0.11474890	      0.02221036	      2.02854781	      0.07060900	      0.01687125	      1.87250567	      0.88266195	      0.12320914	     13.88575308	      0.00000000	      0.00000000	     27.44840373	    -35.52907292	    -43.66023429	     10.80299739	    -15.06891457	    -78.19499483	      3.43101956	    -54.42007399	     20.00395649	      5.00000014	     23.49142304	    -26.30468331	   -216.42277924	     57.21448585	     30.94363167	     20.00395649	      5.00000014
      8.50000000	     15.82521376	     -1.09444504	    140.52291894	     -0.46376405	      0.85163479	      0.06977385	     51.55105257	    -38.14450686	    -69.85819495	    106.73761154	      1.86292276	     45.90133266	    -15.08519326	      0.00000000	     -6.93828369	      4.24353142	     15.83582664	      4.24826236	      0.07414617	     59.79404340	     17.62929671	      0.00000000	      0.11902146	      0.06931822	      2.76376862	      0.22103476	      0.09219323	      2.93650416	      0.19554036	      0.16854031	      2.93650416	      0.13602963	      0.16854031	      2.41829754	      0.11052333	      0.14135371	      2.24556200	      0.06800886	      0.10737392	      2.07282646	      0.85015839	      0.78414153	     15.37125192	      0.00000000	      0.00000000	     27.45130331	    -35.19794890	    -43.66200181	     12.13397758	    -16.13013949	    -79.66554955	      3.03831152	    -54.23155982	     20.00395633	      5.00000014	     24.44176218	    -27.34763040	   -216.60240944	     60.37592640	     31.60388885	     20.00395633	      5.00000014
      8.53333333	     15.62266073	     -1.36160234	    138.34272319	     -0.46262974	      0.85102609	      0.06945633	     51.58392582	    -38.94306001	    -69.87551575	    109.11909710	      1.90448752	     44.33113708	    -11.69801754	      0.00000000	     -7.15131681	      5.11899737	     11.73272302	      4.08862590	      0.07135998	     59.79897116	     18.00952536	      0.00000000	      0.11047961	     -0.00698172	      3.21231323	      0.20517169	     -0.00928569	      3.41308281	      0.18150696	     -0.01697535	      3.41308281	      0.12626715	     -0.01697535	      2.81077408	      0.10259137	     -0.01423712	      2.61000450	      0.06312805	     -0.01081468	      2.40923492	      0.78914484	     -0.07897860	     17.86592250	      0.00000000	      0.00000000	     27.44813885	    -34.80732792	    -43.65887831	     12.76471970	    -16.33269673	    -79.96187822	      2.91092562	    -54.07333611	     20.00395624	      5.00000014	     24.09983366	    -28.67532660	   -217.52050329	     61.32499859	     31.91935913	     20.00395624	      5.00000014
      8.56666667	     15.18546503	     -1.82491194	    135.93696663	     -0.46286709	      0.85215285	      0.06864023	     50.35961616	    -39.97521734	    -69.88252985	    110.80191830	      1.93385829	     43.15327986	     -7.89486198	      0.00000000	     -7.00355607	      6.08869600	     10.70140444	      4.11269568	      0.07178008	     59.79411997	     18.01114882	      0.00000000	      0.10243619	     -0.10159797	      3.72508287	      0.19023425	     -0.13512531	      3.95790055	      0.16829242	     -0.24702531	      3.95790055	      0.11707432	     -0.24702531	      3.25944751	      0.09512225	     -0.20717859	      3.02662983	      0.05853204	     -0.15737526	      2.79381215	      0.73169148	     -1.14929660	     20.71779340	      0.00000000	      0.00000000	     27.44675535	    -34.09461196	    -43.65424509	     12.80400742	    -16.25185547	    -79.74043586	      3.05697027	    -53.79315316	     20.00395613	      5.00000014	     21.86084942	    -29.71577061	   -220.25618065	     58.91781596	     32.10322315	     20.00395613	      5.00000014
      8.60000000	     14.94963319	     -2.16700482	    134.05797577	     -0.46401907	      0.85413934	      0.06789751	     48.58374290	    -41.03424660	    -69.88086449	    111.55701332	      1.94703719	     41.75311426	     -5.94445384	      0.00000000	     -6.51894770	      6.58567240	     11.99148542	      4.30894029	      0.07520520	     59.78412661	     17.76695677	      0.00000000	      0.09624559	     -0.16731526	      4.10940205	      0.17873768	     -0.22252930	      4.36623968	      0.15812188	     -0.40681032	      4.36623968	      0.10999908	     -0.40681032	      3.59572679	      0.08937365	     -0.34118928	      3.33888916	      0.05499473	     -0.25917134	      3.08205154	      0.68747261	     -1.89270368	     22.85526137	      0.00000000	      0.00000000	     27.46215996	    -33.31831174	    -43.66201891	     12.68967878	    -15.88337405	    -77.35800161	      3.13150985	    -52.53373735	     20.00395570	      5.00000014	     16.51032030	    -32.35329477	   -231.89510401	     54.83873870	     32.99471426	     20.00395570	      5.00000014
      8.63333333	     15.28603937	     -1.92540576	    132.89316507	     -0.46591562	      0.85663859	      0.06787287	     46.27216329	    -41.36768408	    -69.87412463	    110.94727327	      1.93639521	     40.56669979	     -5.13572636	      0.00000000	     -5.92561469	      6.10772973	     14.78653678	      4.61435190	      0.08053563	     59.77267233	     17.38298297	      0.00000000	      0.08558118	     -0.13478149	      4.37884469	      0.15893282	     -0.17925939	      4.65252248	      0.14060133	     -0.32770772	      4.65252248	      0.09781073	     -0.32770772	      3.83148910	      0.07947069	     -0.27484642	      3.55781131	      0.04890109	     -0.20877653	      3.28413352	      0.61129783	     -1.52467520	     24.35382052	      0.00000000	      0.00000000	     27.48635962	    -32.63597691	    -43.68245163	     12.40313793	    -15.73983380	    -73.80157036	      3.09872929	    -51.27219616	     20.00395517	      5.00000014	      9.49675467	    -33.72223207	   -247.17662798	     49.41605834	     34.08412486	     20.00395517	      5.00000014
